<svg width="8" height="6" viewBox="0 0 8 6" fill="none" xmlns="http://www.w3.org/2000/svg">
<path d="M7.47314 0.907167L6.83869 0.298463C6.75314 0.21639 6.64621 0.175354 6.52502 0.175354C6.40384 0.175354 6.2969 0.21639 6.21136 0.298463L3.16027 3.22572L1.79869 1.91256C1.71314 1.83048 1.60621 1.78945 1.48502 1.78945C1.36384 1.78945 1.2569 1.83048 1.17136 1.91256L0.536904 2.52126C0.444231 2.60333 0.401459 2.70592 0.401459 2.82219C0.401459 2.93846 0.444231 3.04105 0.529776 3.12313L2.21215 4.73722L2.84661 5.34592C2.93215 5.428 3.03908 5.46903 3.16027 5.46903C3.28146 5.46903 3.38839 5.428 3.47393 5.34592L4.10839 4.73722L7.47314 1.50903C7.55869 1.42696 7.60146 1.32437 7.60146 1.2081C7.60146 1.09183 7.55869 0.98924 7.47314 0.907167Z" fill="white"/>
</svg>
