<svg width="18" height="18" viewBox="0 0 18 18" fill="none" xmlns="http://www.w3.org/2000/svg">
<rect width="18" height="17.6456" rx="4" fill="#F38120"/>
<path d="M12.4731 6.90717L11.8387 6.29846C11.7531 6.21639 11.6462 6.17535 11.525 6.17535C11.4038 6.17535 11.2969 6.21639 11.2114 6.29846L8.16027 9.22572L6.79869 7.91256C6.71314 7.83048 6.60621 7.78945 6.48502 7.78945C6.36384 7.78945 6.2569 7.83048 6.17136 7.91256L5.5369 8.52126C5.44423 8.60333 5.40146 8.70592 5.40146 8.82219C5.40146 8.93846 5.44423 9.04105 5.52978 9.12313L7.21215 10.7372L7.84661 11.3459C7.93215 11.428 8.03908 11.469 8.16027 11.469C8.28146 11.469 8.38839 11.428 8.47393 11.3459L9.10839 10.7372L12.4731 7.50903C12.5587 7.42696 12.6015 7.32437 12.6015 7.2081C12.6015 7.09183 12.5587 6.98924 12.4731 6.90717Z" fill="white"/>
</svg>
